<svg xmlns="http://www.w3.org/2000/svg" viewBox="0 0 436 865" width="436" height="865">
	<style>
		tspan { white-space:pre }
		.shp0 { fill: #0b0a0a } 
		.shp1 { fill: #23b7db } 
	</style>
	<g id="Background">
		<path id="Path 1" fill-rule="evenodd" class="shp0" d="M236.5 8.65C238.15 9.01 240.85 10.13 242.5 11.14C244.15 12.16 246.18 13.01 247 13.03C247.82 13.05 251.43 15.02 255 17.41C258.57 19.8 262.74 23.16 264.25 24.88C265.76 26.59 267.45 28 268 28C268.55 28 269.7 29.69 270.55 31.75C271.48 34.01 271.88 36.89 271.54 39C271.23 40.92 270.32 43.4 269.52 44.5C268.72 45.6 268.05 47.29 268.03 48.25C268.01 49.21 265.99 51.91 263.54 54.25C260.01 57.62 258.77 59.74 257.53 64.5C256.67 67.8 255.54 74.55 255.01 79.5C254.48 84.45 253.83 92.55 253.56 97.5C253.29 102.45 253.51 109.2 254.05 112.5C254.6 115.8 255.14 118.61 255.27 118.75C255.4 118.88 260 117.63 265.5 115.96C271 114.3 277.3 112.66 279.5 112.33C281.7 111.99 284.85 111.04 286.5 110.21C288.15 109.38 290.63 108.74 292 108.79C293.38 108.84 297.65 110.46 301.5 112.4C305.35 114.34 309.81 116.72 311.42 117.71C313.03 118.69 315.59 120.85 317.12 122.5C318.65 124.15 321.5 128.76 323.45 132.75C326.99 139.97 326.99 140.01 325.25 143.31C324.29 145.14 322.38 148.32 321 150.4C319.26 153.02 317.89 154.07 316.5 153.86C315.4 153.69 313.15 154.14 311.5 154.87C309.18 155.88 307.7 155.93 305 155.06C303.07 154.45 297.45 153.7 292.5 153.41C287.55 153.11 279.68 152.72 275 152.55C270.32 152.37 265.91 152.51 265.19 152.86C264.13 153.38 264.09 155.05 264.97 161.5C265.57 165.9 266.56 172.65 267.16 176.5C267.77 180.35 269.09 185.97 270.1 189C271.11 192.03 272.82 196.97 273.9 200C274.98 203.03 276.52 208.43 277.32 212C278.11 215.57 279.33 220.07 280.03 222C280.72 223.93 282.53 228.43 284.04 232C285.56 235.57 287.52 240.86 288.4 243.75C289.28 246.64 290.45 249.22 291 249.5C291.55 249.78 292.23 251.8 292.5 254C292.77 256.2 293.45 258.23 294 258.5C294.55 258.77 295.52 261.36 296.15 264.25C296.93 267.78 297.5 268.9 297.9 267.68C298.33 266.39 299.32 268 301.31 273.18C302.86 277.21 305.2 282.98 306.51 286C307.83 289.02 313.81 301.18 319.8 313C325.8 324.82 332.85 338.55 335.49 343.5C338.12 348.45 342.92 356.44 346.14 361.25C349.36 366.06 352.4 371.01 352.9 372.25C353.39 373.49 354.85 375.73 356.15 377.24C357.44 378.75 358.84 379.98 359.25 379.99C359.66 380 359.99 376.06 359.98 371.25C359.96 366.44 360.65 352.82 361.5 341C362.35 329.18 364.16 310.05 365.53 298.5C366.9 286.95 368.45 272.1 368.98 265.5C369.5 258.9 370.16 253.28 370.43 253C370.7 252.72 371.2 254.75 371.54 257.5C371.88 260.25 372.79 263.85 374.95 268.5L374.99 265.5C375.01 263.85 375.43 261.82 375.91 261C376.5 259.98 377.46 263.18 378.89 271C380.04 277.32 381.82 285.43 384.68 295.5L386.3 284.5L387.09 288.5C387.53 290.7 387.91 294.41 387.94 296.75C387.97 299.09 388.71 303.81 389.57 307.25C390.43 310.69 390.92 313.95 390.66 314.5C390.4 315.05 391.05 320 392.11 325.5C393.18 331 394.22 338.43 394.43 342C394.64 345.57 395.35 355.02 396.01 363C396.67 370.98 397.32 379.75 397.47 382.5C397.62 385.25 398.08 392.9 398.49 399.5C399.09 409.28 398.93 412.52 397.6 417C396.7 420.02 394.74 423.91 393.23 425.63C391.73 427.35 388.02 430.09 385 431.73C380.96 433.92 378.73 434.55 376.6 434.11C375.01 433.77 373.54 432.94 373.35 432.25C373.16 431.56 371.65 431 370 431C368.35 431 366.66 430.4 366.25 429.66C365.84 428.93 364.75 427.91 363.84 427.41C362.93 426.91 360.56 425.04 358.59 423.25C356.61 421.46 354.66 419.98 354.25 419.96C353.84 419.94 350.86 417.13 347.62 413.71C344.39 410.3 341.47 406.99 341.12 406.37C340.78 405.76 336.11 400.58 330.76 394.87C325.4 389.17 319.4 382.25 317.44 379.5C315.48 376.75 313.11 373.75 312.19 372.83C311.26 371.92 309.01 368.99 307.19 366.33C305.36 363.68 301.35 357.9 298.27 353.5C295.19 349.1 290.19 341.23 287.15 336C284.12 330.77 276.37 315.93 269.94 303C263.52 290.07 256.1 274.55 253.47 268.5C250.84 262.45 247.86 255.7 246.86 253.5C245.85 251.3 245.03 248.82 245.03 248C245.03 247.18 244.63 246.05 244.13 245.5C243.63 244.95 241.33 238.65 239.01 231.5C236.69 224.35 234.2 217.38 233.49 216C232.78 214.63 231.52 211.03 230.68 208C229.85 204.97 228.22 200.03 227.06 197C225.91 193.97 223.38 186.78 221.46 181C219.53 175.22 217.34 168.7 216.59 166.5C215.75 164.03 214.71 162.63 213.87 162.85C213.11 163.05 208.45 164.25 203.5 165.53C198.55 166.81 191.91 168.56 188.75 169.43C185.59 170.29 180.64 171.67 177.75 172.49C174.86 173.31 166.65 175.56 159.5 177.5C152.35 179.43 142.22 181.94 137 183.07C131.78 184.21 125.03 185.99 122 187.03C118.97 188.08 113.35 189.67 109.5 190.56C105.65 191.46 101.38 192.38 100 192.62C98.63 192.85 96.15 193.34 94.5 193.7C92.85 194.07 88.13 197.27 84 200.83C79.88 204.38 74.03 209.13 71 211.37C67.97 213.62 64.33 216.82 62.91 218.48C61.49 220.14 58.11 222.59 55.41 223.93C52.71 225.27 48.81 226.51 46.75 226.68C44.29 226.89 41.2 226.14 37.75 224.51C34.86 223.14 31.71 222.02 30.75 222.01C29.79 222 27.33 220.54 25.3 218.75C23.26 216.96 20.23 214.12 18.55 212.43C16.87 210.74 14.43 207.14 13.13 204.43C11.42 200.88 10.93 198.59 11.38 196.25C11.74 194.38 12.74 192.79 13.75 192.51C14.71 192.24 17.52 190.13 20 187.82C23.93 184.17 25.27 183.55 30.5 182.97C34.27 182.56 39.48 180.91 44.5 178.54C48.9 176.46 55.42 173.64 59 172.27C62.58 170.9 71.58 168.47 79 166.88C86.42 165.29 98.69 161.96 106.25 159.49C113.81 157.02 120.56 155.01 121.25 155.01C121.94 155.02 125.42 154.15 129 153.07C132.57 151.99 141.57 149.47 149 147.47C156.43 145.48 163.85 143.39 165.5 142.85C167.15 142.31 170.53 141.49 173 141.03C175.47 140.57 183.8 138.55 191.5 136.54C199.2 134.54 205.95 132.46 206.5 131.92C207.17 131.28 206.83 127.03 205.5 119.23C203.92 109.95 203.53 103.42 203.64 88C203.77 70.57 204.11 66.91 206.82 53.5C208.5 45.25 210.65 36.92 211.61 35C212.56 33.08 214.02 30.15 214.85 28.5C215.67 26.85 217.62 23.93 219.18 22C220.74 20.07 222 18.05 221.98 17.5C221.96 16.95 223.75 15.71 225.97 14.75C228.19 13.79 230.3 12.21 230.68 11.25C231.05 10.29 231.84 9.16 232.43 8.75C233.02 8.34 234.85 8.29 236.5 8.65ZM322.05 18C322.57 18 324.46 19.33 326.25 20.96C328.04 22.59 330.4 23.92 331.5 23.93C332.6 23.93 334.64 24.51 336.04 25.22C337.44 25.92 340.37 27.85 342.55 29.5C344.73 31.15 347.41 32.98 348.5 33.57C349.6 34.17 351.29 36.19 352.25 38.07C353.21 39.96 354 43.08 354.01 45C354.01 46.92 353.34 49.51 352.51 50.75C351.68 51.99 349.54 53.37 347.75 53.83C345.96 54.29 343.82 54.34 343 53.94C342.18 53.54 340.15 52.63 338.5 51.91C336.52 51.05 331.91 50.69 325 50.84C315.33 51.06 314.66 50.96 316.5 49.52C317.6 48.67 319.06 47.97 319.75 47.98C320.44 47.99 320.77 47.55 320.5 47C320.23 46.45 316.63 46 312.5 46C308.38 46 303.88 45.55 302.5 45C301.13 44.45 300.02 43.44 300.05 42.75C300.07 42.06 301.82 40.15 303.92 38.5C306.03 36.85 308.68 34.15 309.81 32.5C310.93 30.85 312.21 27.7 312.64 25.5C313.07 23.3 314.07 20.9 314.86 20.17C315.65 19.44 317.13 19.1 318.15 19.42C319.17 19.74 320.25 19.55 320.55 19C320.85 18.45 321.53 18 322.05 18ZM152.5 71.19C158.97 71.14 159.91 71.41 164.89 74.82C167.86 76.84 171.02 78.95 171.92 79.5C172.82 80.05 175.73 82.3 183.2 88.5L182.57 95.5C182.21 99.44 181.31 103.12 180.52 103.92C179.73 104.7 177.69 105.37 175.98 105.42C173.71 105.48 171.92 106.52 169.43 109.25C167.54 111.31 166.01 113.34 166.01 113.75C166.02 114.16 163.55 115.74 160.51 117.25C157.44 118.78 153.34 120 151.25 120C149.19 120 144.13 120.95 140 122.11C135.88 123.28 130.7 124.18 128.5 124.11C126.13 124.05 123.27 123.11 121.5 121.83C119.85 120.63 116.92 119.56 115 119.45C113.08 119.34 109.25 118.88 106.5 118.43C102.81 117.82 100.65 116.74 98.25 114.3C96.46 112.49 94.99 110.21 94.98 109.25C94.97 108.29 94.12 105.7 93.1 103.5C91.65 100.37 91.42 98.52 92.04 95C92.48 92.53 93.44 90.3 94.17 90.05C94.9 89.81 96.29 88.8 97.25 87.8C98.32 86.7 99.68 86.25 100.75 86.65C101.71 87.01 103.4 87.19 104.5 87.05C105.6 86.91 110.55 85.22 115.5 83.29C120.45 81.35 125.63 79.17 127 78.45C128.38 77.72 132.43 76.17 136 75C139.57 73.83 143.18 72.51 144 72.06C144.82 71.61 148.65 71.22 152.5 71.19Z" />
		<path id="Path 2" class="shp1" d="M141.25 211.09C138.36 212.14 133.58 213.11 130.61 213.25C126.85 213.42 124.59 214.1 123.11 215.5C121.95 216.6 120.77 218.51 120.5 219.75C120.22 220.99 119.1 222.22 118 222.5C116.29 222.93 116.07 223.61 116.49 227.25C116.75 229.59 117.26 237.35 117.61 244.5C118.12 254.73 117.88 259.53 116.5 267C115.54 272.23 113.93 280.55 112.91 285.5C111.9 290.45 110.21 297.65 109.16 301.5C108.11 305.35 106.48 310.52 105.53 313C104.59 315.48 103.43 318.4 102.95 319.5C102.48 320.6 101.04 323.98 99.77 327C98.49 330.02 95.12 337 92.28 342.5C89.45 348 85.08 355.09 82.56 358.25C80.05 361.41 77.44 363.85 76.75 363.67C76 363.47 75.26 360.78 74.89 356.92C74.49 352.63 75.09 344.37 76.72 332C78.06 321.82 79.52 310.35 79.96 306.5C80.4 302.65 81.32 298.15 81.99 296.5C82.67 294.85 83.85 290.91 84.61 287.75C85.67 283.36 85.75 280.88 84.94 277.25C84.36 274.64 83.31 271.6 82.59 270.5C81.88 269.4 79.65 267.6 77.64 266.5C75.63 265.4 73.99 263.94 73.99 263.25C74 262.56 72.65 260.65 71 259C68.59 256.59 67.27 256.05 64.28 256.25C61.43 256.44 60.08 257.2 58.5 259.5C57.37 261.15 55.78 264.66 54.97 267.3C53.83 271.01 52.93 272.23 51 272.69C49.63 273.01 47.02 274.91 45.21 276.89C43.4 278.88 41.94 281.29 41.96 282.25C41.98 283.21 42.45 288.61 43.01 294.25C43.56 299.89 44.48 309.23 45.06 315C45.64 320.77 46.81 329.55 47.65 334.5C48.5 339.45 49.35 343.73 49.53 344C49.72 344.27 51.05 349 52.49 354.5C53.92 360 56 366.98 57.11 370C58.21 373.02 60.44 376.96 62.06 378.75C64 380.89 65.94 382.01 67.75 382.02C69.26 382.04 72.08 381.42 74 380.65C75.92 379.88 78.18 378.63 79.02 377.87C79.85 377.12 82.78 374.48 85.52 372C88.26 369.52 90.37 367.05 90.22 366.5C90.06 365.95 91.19 364.23 92.72 362.67C94.25 361.12 96.93 357.29 98.68 354.17C100.43 351.05 104.14 343.77 106.93 338C109.72 332.23 112.46 326.82 113.03 326C113.59 325.18 115.16 322.14 116.53 319.25C117.89 316.36 119.56 314 120.25 313.99C121.21 313.98 121.32 315.79 120.74 321.74C120.32 326.01 120.46 336.25 121.04 344.5C121.62 352.75 122.77 361.75 123.59 364.5C124.88 368.79 124.91 370.69 123.8 377.82C122.52 386 122.54 386.17 124.74 387.82C125.98 388.75 127.83 391.07 128.86 393C130.21 395.5 131.7 396.73 134.12 397.31C135.98 397.75 138.96 398.54 140.75 399.06C143.54 399.87 144.81 399.55 149.75 396.8L155.5 393.6C197.35 393.03 221.65 392.64 236.5 392.36C251.35 392.08 264.63 391.73 266 391.59C267.38 391.44 270.42 390.91 272.76 390.41C275.1 389.91 277.24 388.94 277.51 388.25C277.78 387.56 278.9 387 280 387C281.1 387 283.78 385.54 285.95 383.75C289.23 381.04 289.91 379.87 289.95 376.75C289.98 374.69 289.44 372.01 288.75 370.81C288.06 369.6 286.19 367.47 284.58 366.06C282.98 364.65 280.73 363.21 279.58 362.86C278.44 362.51 274.57 362.82 271 363.55C267.43 364.28 259.55 365.36 253.5 365.95C247.45 366.53 236.65 367.47 229.5 368.04C222.35 368.6 211.1 369.72 204.5 370.53C197.9 371.34 189.13 372 185 371.99C180.88 371.98 175.84 371.65 173.81 371.24L170.12 370.5C176.61 363.46 179.82 359.86 181.43 357.96C183.04 356.05 187.99 350.48 192.43 345.56C196.87 340.64 209.05 328.01 219.5 317.48C231.56 305.34 239.23 296.8 240.5 294.11C242.08 290.76 242.29 289.3 241.48 287.18C240.73 285.19 239.31 284.16 235.98 283.19C233.52 282.47 230.71 281.46 229.75 280.94C228.79 280.42 225.86 280.28 223.25 280.61C220.64 280.95 216.93 282.25 215 283.51C213.07 284.76 206.98 290.22 201.46 295.64C195.94 301.06 188.97 307.38 185.96 309.67C182.96 311.96 172.93 321.64 163.67 331.17C154.41 340.7 143.96 351.43 140.44 355C136.93 358.57 134.05 362.18 134.05 363C134.05 363.82 133.82 364.27 133.53 364C133.24 363.73 133.4 359 133.89 353.5C134.38 348 136.16 337.65 137.86 330.5C139.55 323.35 141.85 313.45 142.97 308.5C144.1 303.55 147.31 290.73 150.11 280C152.91 269.27 155.86 256 156.66 250.5C157.46 245 158.54 240.39 159.06 240.25C159.58 240.11 160.01 239.21 160.03 238.25C160.05 237.29 161.85 235.04 164.03 233.25C167.69 230.25 168 229.61 168 225C168 220.58 167.57 219.55 164.25 216.12C162.19 213.99 158.7 211.51 156.5 210.6C154.3 209.69 151.15 209 149.5 209.06C147.85 209.12 144.14 210.03 141.25 211.09Z" />
		<path id="Path 3" class="shp0" d="M337.03 478.26C330.48 479.69 327.63 480.73 327.78 481.66C327.9 482.4 329.69 484.72 331.75 486.82C333.81 488.91 337.07 493.28 339 496.53C341.9 501.41 342.49 503.37 342.45 507.96C342.42 511.57 341.25 516.81 339.08 523C337.25 528.23 334.55 534.98 333.08 538C331.6 541.02 328.19 547.55 325.49 552.5C322.8 557.45 318.77 564.07 316.55 567.22C314.32 570.36 310.25 576.15 307.5 580.08C303.93 585.18 300.7 588.4 296.2 591.36C292.04 594.09 290.05 596.01 290.35 597C290.61 597.83 291.82 601.42 293.04 605C294.27 608.58 296 613.48 296.88 615.9C298.35 619.91 298.99 620.47 304 622.2C307.02 623.25 310.18 624.35 311 624.65C311.82 624.95 314.3 624.3 316.5 623.21C318.7 622.13 322.52 619.71 325 617.84C327.48 615.97 331.67 613.1 334.31 611.47C336.96 609.84 340.52 607.38 342.23 606C343.93 604.63 347.39 602.3 349.91 600.84C352.44 599.37 358.77 596.05 364 593.46C369.23 590.86 375.19 587.9 377.25 586.87L381 585C380.06 588.49 378.04 591.52 375.9 594C373.76 596.48 370.46 601.2 368.56 604.5C366.66 607.8 364.45 613.2 363.65 616.5C362.28 622.15 362.34 623.24 364.7 635C366.88 645.86 367.06 648.25 366.1 653.25C365.38 657 365.33 659.78 365.95 661.25C366.48 662.49 366.73 663.73 366.51 664C366.29 664.27 365.62 669.67 365.02 676C364.41 682.33 363.68 691.33 363.4 696C363.11 700.67 362.72 704.73 362.52 705C362.32 705.27 361.43 712.02 360.54 720C359.66 727.98 358.27 739.23 357.47 745C356.66 750.77 355.11 760.23 354.02 766C352.76 772.68 351.03 778.29 349.27 781.43C347.75 784.14 344.98 787.52 343.12 788.93L339.73 791.5C319.4 788.79 312.26 788 310.75 788C309.24 788 308 787.55 308 787C308 786.45 307.44 785.99 306.75 785.99C306.06 785.98 301.45 783.99 296.5 781.57C291.55 779.15 285.93 776.71 284 776.14C282.07 775.57 279.82 774.38 279 773.51C278.18 772.63 276.94 771.93 276.25 771.96C275.56 771.98 274.77 772.45 274.5 773C274.23 773.55 274.72 775.46 275.6 777.25C276.84 779.77 276.95 781 276.1 782.75C275.23 784.54 275.36 785.54 276.75 787.62C277.71 789.07 280.71 791.88 283.41 793.87C286.1 795.87 290.04 798.74 292.16 800.25C294.27 801.76 296 803.45 296 804C296 804.55 297.69 805.53 299.75 806.17C301.81 806.81 305.31 808.5 307.52 809.92C309.73 811.34 313.1 813.71 315.02 815.19C316.93 816.67 320.3 818.62 322.5 819.54C324.7 820.45 327.29 821.83 328.25 822.6C329.21 823.37 330.34 823.8 330.75 823.55C331.16 823.3 333.3 823.58 335.5 824.16C337.7 824.75 340.85 825.44 342.5 825.69C344.15 825.95 347.98 826.39 351 826.67C354.02 826.96 358.3 827.22 360.5 827.25C362.7 827.28 367.88 826.47 372 825.45C378.46 823.86 380.5 822.76 386.72 817.55C390.69 814.22 395.44 809.25 397.28 806.5C399.12 803.75 401.56 799.25 402.72 796.5C403.87 793.75 405.29 788.13 405.86 784C406.44 779.88 407.18 771.33 407.5 765C407.83 758.67 407.6 749.23 407.01 744C406.41 738.77 405.93 733.49 405.96 732.25C405.98 731.01 405.32 724.26 404.5 717.25C403.67 710.24 402.36 702.25 401.58 699.5C400.81 696.75 400.53 694.05 400.97 693.5C401.41 692.95 401.38 689.13 400.9 685C400.42 680.88 399.53 674.13 398.91 670C398.28 665.88 396.53 659.13 395.02 655C393.5 650.88 390.68 644.35 388.75 640.5C386.82 636.65 383.77 631.92 381.97 630C380.17 628.08 377.86 624.59 376.85 622.25C375.29 618.66 375.17 617.34 376.12 613.75C376.73 611.41 378.29 607.25 379.58 604.5C380.87 601.75 384.25 596.8 387.1 593.5C389.94 590.2 395.73 584.13 399.97 580C404.21 575.88 409.89 571.19 412.59 569.6C415.66 567.78 418.56 564.97 420.33 562.1C421.89 559.57 423.24 555.96 423.33 554.08C423.48 551.15 422.93 550.25 419.5 547.8C417.3 546.23 414.38 544.48 413 543.93C411.14 543.18 407.81 543.48 400 545.09C394.23 546.28 386.57 548.29 383 549.55C379.43 550.82 372.11 553.69 366.75 555.93C361.39 558.17 352.61 562.32 347.25 565.15C341.89 567.98 335.25 571.51 332.5 573C329.75 574.48 324.91 577.11 321.75 578.85C317.75 581.04 315.88 581.62 315.61 580.75C315.39 580.06 316.44 577.02 317.94 574C319.44 570.98 323.58 564 327.16 558.5C330.73 553 334.07 547.75 334.58 546.84C335.08 545.92 339.1 541.25 343.5 536.45C347.9 531.66 352.68 526.11 354.11 524.12C355.55 522.13 358.03 519.94 359.61 519.26C361.2 518.58 364.3 517.66 366.5 517.22C369.34 516.65 371.7 516.87 374.61 517.96C378.58 519.44 378.91 519.41 383.61 516.94C388.08 514.6 388.59 513.96 389.57 509.44C390.32 505.94 390.32 503.35 389.57 500.55C388.67 497.22 387.09 495.54 379.5 489.81C373.71 485.44 368.36 482.32 364.5 481.05C361.2 479.96 356.7 478.4 354.5 477.58C352.3 476.76 349.6 476.11 348.5 476.15C347.4 476.18 342.24 477.13 337.03 478.26Z" />
		<path id="Path 4" fill-rule="evenodd" class="shp1" d="M139 479.65C141.47 479.95 143.91 480.49 144.41 480.85C144.91 481.21 145.09 484.43 144.81 488C144.5 491.91 143.39 496.29 142.02 499C140.76 501.48 139.43 503.73 139.07 504C138.7 504.27 137.33 506.07 136.02 508C134.71 509.93 132.14 513.19 130.32 515.25C128.49 517.31 127 519.67 127 520.5C127 521.33 126.55 522 126 522C125.45 522 123.92 523.91 122.6 526.25C121.28 528.59 118.81 531.96 117.1 533.75C115.4 535.54 113.48 538.01 112.84 539.25C112.2 540.49 110.29 543.3 108.59 545.5C106.89 547.7 104.27 550.96 102.75 552.75C101.24 554.54 100 556.45 100 557C100 557.65 101.3 557.63 103.75 556.93C105.81 556.34 109.08 555.39 111 554.81C112.92 554.24 117.42 553.82 121 553.89C124.58 553.96 127.95 554.41 128.5 554.88C129.05 555.36 130.06 557.83 130.75 560.38C131.44 562.92 132 567.14 132 569.75C132 572.36 131.58 575.85 131.07 577.5C130.56 579.15 128.94 583.65 127.49 587.5C126.03 591.35 124.23 596.08 123.48 598C122.72 599.92 120.7 604.2 118.97 607.5C117.24 610.8 115.24 614.17 114.53 615C113.82 615.83 112.22 618.52 110.97 621C109.73 623.48 107.7 626.85 106.47 628.5C105.24 630.15 103.96 632.4 103.63 633.5C103.29 634.6 101.89 636.74 100.51 638.25C99.13 639.76 97.55 642.01 97 643.25C96.45 644.49 94.37 647.75 92.38 650.5C90.39 653.25 86.73 657.08 84.24 659C81.76 660.92 77.9 665.2 75.67 668.5C73.44 671.8 67.82 679.23 63.18 685C58.12 691.3 51.89 697.69 47.62 700.96C43.7 703.97 40.27 706.69 40 707.01C39.73 707.33 36.58 709.61 33 712.08C29.42 714.55 23.24 718.24 19.25 720.28C15.26 722.33 11.55 724 11 724C10.4 724 10.24 722.49 10.61 720.25C10.94 718.19 12.02 714.02 13 711C13.98 707.98 15.58 703.48 16.55 701C17.52 698.52 20.6 693.21 23.4 689.19C26.21 685.16 32.69 676.16 37.82 669.19C42.95 662.21 48.57 655.04 50.32 653.26C52.07 651.49 53.16 649.8 52.75 649.51C52.34 649.23 53.91 646.95 56.25 644.45C58.59 641.95 62.19 638.12 64.25 635.95C66.31 633.78 68 631.55 68 631C68 630.45 68.9 629.77 70 629.5C71.1 629.23 72 628.33 72 627.5C72 626.67 72.82 625.44 73.81 624.75C74.81 624.06 76.72 621.94 78.06 620.04C79.4 618.13 81.51 615.43 82.75 614.04C83.99 612.64 84.99 611.27 84.96 611C84.94 610.73 86.54 608.7 88.53 606.5C90.51 604.3 94.13 598.45 96.58 593.5C99.41 587.76 100.83 583.69 100.51 582.25C100.13 580.58 99.29 580 97.25 580C95.74 580 92.03 580.95 89 582.1C85.97 583.25 81.92 585.01 80 586C78.08 586.99 73.58 588.72 70 589.85C66.42 590.98 62.15 591.99 60.5 592.1C58.85 592.21 56.71 592.23 55.75 592.15C54.52 592.04 53.36 590.01 51.84 585.25C50.64 581.54 49.74 576.36 49.84 573.75C49.93 571.14 50.46 568.44 51.01 567.75C51.57 567.06 53.15 564.81 54.51 562.75C55.88 560.69 57 558.55 57 558C57 557.45 58.14 555.76 59.53 554.25C60.93 552.74 62.04 551.27 62.01 551C61.98 550.73 63.75 548.48 65.96 546C68.17 543.52 69.98 541.16 69.99 540.75C69.99 540.34 72.03 537.75 74.5 535C76.97 532.25 79 529.55 79 529C79 528.45 79.56 527.99 80.25 527.97C80.94 527.95 82.93 526.04 84.67 523.72C86.41 521.4 93.28 513.88 99.92 507C106.57 500.13 112 494.16 112 493.75C112 493.34 113.06 491.99 114.35 490.75C115.64 489.51 118 487.56 119.6 486.4C121.19 485.25 123.99 483.5 125.81 482.5C127.62 481.51 130.32 480.34 131.81 479.9C133.29 479.46 136.53 479.34 139 479.65ZM190.41 508.78C191.01 509.06 194.65 511.25 198.5 513.63C202.35 516.01 205.95 517.96 206.5 517.96C207.05 517.96 208.68 519.2 210.13 520.73C211.57 522.25 213.26 524.51 213.88 525.75C214.8 527.61 215.65 527.93 218.75 527.63C220.81 527.42 225.65 526.11 229.5 524.71C233.35 523.32 238.97 522.04 242 521.87C245.03 521.7 250.88 521.61 255 521.68C260.33 521.77 263.4 522.33 265.63 523.65C267.35 524.67 271.06 527.64 273.88 530.25C276.69 532.86 280.17 537.36 281.6 540.25C283.76 544.59 284.2 546.88 284.2 553.5C284.19 558.77 283.61 562.86 282.49 565.5C281.56 567.7 279.64 571.98 278.23 575C276.82 578.02 271.85 586.13 267.2 593C262.54 599.88 256.23 608.88 253.19 613C250.14 617.13 246.6 621.96 245.33 623.75C244.05 625.54 242.1 627.23 241 627.5C239.9 627.77 237.99 629.67 236.75 631.72C235.51 633.77 233.78 636.13 232.89 636.97C232.01 637.81 226.27 644.91 220.14 652.75C211.98 663.19 208.84 668 208.39 670.75C208.05 672.81 208.05 675.63 208.39 677C208.73 678.38 209.52 686.25 210.14 694.5C210.77 702.75 211.24 711.52 211.18 714C211.13 716.48 210.84 723.23 210.54 729C210.25 734.77 209.35 741.75 208.55 744.5C207.75 747.25 206.65 752.65 206.11 756.5C205.57 760.35 204.31 765.87 203.32 768.78C201.75 773.31 201.17 774.01 199.15 773.78C197.06 773.53 196.53 772.46 194.57 764.5C193.35 759.55 191.6 752.35 190.68 748.5C189.75 744.65 188.49 736.55 187.88 730.5C187.27 724.45 186.2 717.25 185.52 714.5C184.83 711.75 183.84 709.5 183.3 709.5C182.77 709.5 179.98 712.2 177.09 715.5C174.21 718.8 170.2 723.97 168.18 726.98C166.15 730 163.75 733.15 162.84 733.98C161.92 734.82 159.73 737.3 157.97 739.5C156.22 741.7 152.24 745.43 149.14 747.79C144.97 750.96 142.58 752.08 140 752.07C137.05 752.07 135.61 751.15 130.88 746.28C126.64 741.91 124.86 739.16 123.62 735C122.72 731.98 121.98 728.49 121.99 727.25C122 726.01 122.56 724.05 123.25 722.89C123.94 721.73 126.97 718.04 130 714.69C133.03 711.33 137.07 707 139 705.05C140.93 703.1 144.97 698.65 148 695.16C151.03 691.68 155.75 687.35 158.5 685.54C161.25 683.73 166.43 679.23 170 675.54C173.57 671.85 177.46 667.18 178.64 665.17C180.71 661.62 180.78 660.5 180.5 600.5L177.75 600.25C175.44 600.04 173.18 601.81 163.72 611.25C157.52 617.44 150.09 625.31 147.22 628.75C144.01 632.59 141.23 635 140 635C138.9 635 135.97 633.88 133.5 632.5C129.56 630.31 128.82 629.35 127.55 624.75C126.25 620.06 126.27 618.97 127.72 614.5C128.61 611.75 132.08 605.46 135.42 600.53C139.19 594.97 147.41 585.55 157.01 575.78C165.54 567.1 173.08 560 173.76 560C174.44 560 175.84 559.21 176.86 558.25C177.88 557.29 180.26 555.15 182.15 553.5C184.53 551.42 185.81 549.27 186.3 546.5C186.7 544.3 187.27 540.02 187.58 537C188.05 532.41 187.82 531.17 186.19 529.5C185.12 528.4 183.93 525.92 183.56 524C183.19 522.08 182.66 518.7 182.38 516.5C181.95 513.13 182.23 512.26 184.15 511C185.41 510.18 187.08 509.22 187.88 508.88C188.67 508.54 189.81 508.49 190.41 508.78ZM248 558.57C246.07 559.38 243.71 560.04 242.75 560.03C241.79 560.01 237.29 561.81 232.75 564.02C228.21 566.23 221.84 569.72 218.6 571.77C215.02 574.03 211.97 576.88 210.85 579C209.72 581.13 208.99 584.56 209 587.75C209 590.64 208.48 594.01 207.85 595.25C207.19 596.54 206.49 604.57 206.21 614C205.85 625.77 206.04 630.71 206.86 631.25C207.55 631.7 209.68 630.16 212.25 627.33C214.59 624.76 217.63 621.22 219 619.46C220.38 617.7 223.75 613.55 226.5 610.23C229.25 606.91 233.07 601.87 235 599.04C236.93 596.21 239.9 592.01 241.62 589.7C243.34 587.39 245.79 583.48 247.06 581C248.34 578.52 250.89 574.48 252.72 572C254.56 569.52 256.05 566.94 256.03 566.25C256.01 565.56 256.68 563.88 257.5 562.5C258.32 561.13 258.77 559.33 258.5 558.5C258.19 557.56 256.78 557.01 254.75 557.04C252.96 557.06 249.93 557.75 248 558.57Z" />
		<path id="Path 6" class="shp0" d="M220.4 667.34C218.32 669.21 218.1 670.02 218.75 673.37C219.31 676.29 220.24 677.62 222.5 678.76C224.15 679.59 227.25 681.67 229.39 683.39C231.53 685.1 234.23 688.42 235.39 690.76C236.73 693.46 239.88 696.86 244 700.06C247.57 702.83 251.63 705.35 253 705.66C254.46 705.98 257.14 705.44 259.42 704.36C262 703.13 263.79 701.39 264.67 699.25C265.81 696.47 265.77 695.24 264.39 690.75C263.5 687.86 261.7 683.59 260.39 681.25C259.07 678.91 256.76 676.39 255.25 675.63C253.74 674.88 250.03 673.69 247 672.99C243.97 672.29 239.03 670.63 236 669.3C232.97 667.98 228.77 666.51 226.66 666.04C223.41 665.32 222.44 665.52 220.4 667.34ZM86.17 709.59C83.97 711.4 81.29 713.92 80.21 715.19C79.12 716.46 77.48 719.3 76.55 721.5C75.62 723.7 73.96 729.77 72.87 735C71.77 740.23 70.65 747.42 70.38 751C70.12 754.58 69.68 762.67 69.41 769C69.15 775.33 69.02 781.63 69.12 783C69.23 784.38 69.27 786.85 69.22 788.5C69.16 790.15 68.98 794.2 68.81 797.5C68.64 800.8 69.07 808 69.77 813.5C70.47 819 71.28 825.3 71.58 827.5C71.89 829.7 73.11 833.42 74.32 835.77C75.52 838.13 76.72 840.03 77 840.02C77.28 840 79.86 841.57 82.75 843.49L88 847C91.94 842.74 93.71 840.15 94.47 838.5C95.24 836.85 96.57 831.67 97.42 827C98.28 822.33 99.65 812.65 100.47 805.5C101.3 798.35 101.96 791.83 101.96 791C101.95 790.17 101.94 785 101.94 779.5C101.93 774 102.42 765.23 103.03 760C103.65 754.77 104.31 747.8 104.51 744.5C104.71 741.2 105.34 736.48 105.9 734C106.71 730.4 106.57 728.4 105.18 724C104.23 720.98 102.78 717.46 101.97 716.2C101.16 714.93 98.18 712.18 95.34 710.09L90.18 706.29L86.17 709.59Z" />
	</g>
</svg>